<?xml version="1.0" encoding="utf-8"?>
<!-- Generator: Adobe Illustrator 16.0.0, SVG Export Plug-In . SVG Version: 6.00 Build 0)  -->
<!DOCTYPE svg PUBLIC "-//W3C//DTD SVG 1.1//EN" "http://www.w3.org/Graphics/SVG/1.1/DTD/svg11.dtd">
<svg version="1.1" id="Layer_1" xmlns="http://www.w3.org/2000/svg" xmlns:xlink="http://www.w3.org/1999/xlink" x="0px" y="0px"
	 width="283.465px" height="283.465px" viewBox="0 0 283.465 283.465" enable-background="new 0 0 283.465 283.465"
	 xml:space="preserve">
<path fill-rule="evenodd" clip-rule="evenodd" fill="#3B96E8" d="M84.428,221.723l11.521-36.265
	c8.268-23.317,17.62-47.857,28.554-69.523l17.782-31.639c-18.979,1.529-50.875,24.681-58.456,34.251l-12.212-10.64
	C61.994,99.869,37.671,86.319,26.6,84.479c5.471,10.495,8.757,12.015,17.097,31.308c9.662,22.348,19.683,47.276,27.734,70.323
	C73.499,192.028,82.317,218.854,84.428,221.723"/>
<path fill-rule="evenodd" clip-rule="evenodd" fill="#6DB7E6" d="M89.494,222.609l24.123-0.012
	c5.521-13.318,26.456-81.628,29.657-86.944c6.857,16.459,24.237,79.31,28.876,86.898l25.004,0.063
	c-1.053-8.758-7.66-25.32-10.524-34.582c-3.479-11.242-8.144-22.653-12.422-33.419c-3.642-9.165-22.43-50.938-29.467-59.727
	l-1.276-1.303c-0.098-0.094-0.305-0.287-0.479-0.399c-4.929,6.047-12.331,21.365-16.556,29.529
	c-4.974,9.611-10.074,20.671-14.582,31.22C107.421,164.296,88.974,211.574,89.494,222.609"/>
<path fill-rule="evenodd" clip-rule="evenodd" fill="#3B96E8" d="M202.663,221.825l11.815-35.761
	c7.359-21.698,31.813-90.839,45.262-99.457c-7.823,0.364-25.526,8.984-31.556,12.632c-11.281,6.826-16.995,12.441-25.04,20.17
	c-3.626-2.028-8.761-7.208-12.482-10.218c-4.106-3.32-8.351-6.396-12.921-9.569c-7.787-5.404-20.205-13.32-32.487-13.582
	l16.576,31.944c12.162,23.527,27.762,59.425,35.516,85.064C199.254,209.356,200.51,215.714,202.663,221.825"/>
<path fill-rule="evenodd" clip-rule="evenodd" fill="#6DB7E6" d="M61.457,222.56l16.922,0.037
	c-0.215-6.028-8.743-30.502-10.959-37.369c-3.992-12.36-8.306-24.749-12.945-36.792c-5.967-15.491-24.321-57.057-34.919-63.775
	l20.882,68.98C43.712,164.303,58.951,217.402,61.457,222.56"/>
<path fill-rule="evenodd" clip-rule="evenodd" fill="#6DB7E6" d="M209.02,222.601l13.859,0.077l43.673-135.431
	c-3.595,4.502-6.496,8.314-10.042,13.865c-8.751,13.704-17.846,32.97-24.129,48.195C228.061,159.776,208.485,213.119,209.02,222.601
	"/>
<path fill-rule="evenodd" clip-rule="evenodd" fill="#3B96E8" d="M80.346,77.864c-18.728,4.833-11.39,30.903,6.015,27.113
	c6.285-1.369,12.193-8.293,10.351-16.678C95.298,81.862,88.329,75.804,80.346,77.864"/>
<path fill-rule="evenodd" clip-rule="evenodd" fill="#3B96E8" d="M197.92,79.81c-18.085,7.881-5.58,32.381,10.533,25.358
	C224.846,98.024,214.596,72.543,197.92,79.81"/>
</svg>
